<svg xmlns="http://www.w3.org/2000/svg" width="23.285" height="23.285" viewBox="0 0 23.285 23.285"><defs><style>.a{fill:#333;}</style></defs><g transform="translate(-4730.935 -25)"><path class="a" d="M27.319,37.062A9.384,9.384,0,1,1,36.7,27.679,9.394,9.394,0,0,1,27.319,37.062Zm0-16.682a7.3,7.3,0,1,0,7.3,7.3A7.306,7.306,0,0,0,27.319,20.38Z" transform="translate(4713 6.705)"/><path class="a" d="M66.781,68.183a1.038,1.038,0,0,1-.737-.306l-6.951-6.951a1.043,1.043,0,1,1,1.474-1.474L67.519,66.4a1.043,1.043,0,0,1-.737,1.78Z" transform="translate(4686.396 -19.898)"/></g></svg>