<svg xmlns="http://www.w3.org/2000/svg" width="91" height="91" viewBox="0 0 91 91"><defs><style>.a{fill:#e8e3f8;}.b{fill:#7ccbf3;}</style></defs><g transform="translate(-915 -2110)"><circle class="a" cx="45.5" cy="45.5" r="45.5" transform="translate(915 2110)"/><g transform="translate(936 2131)"><g transform="translate(1 1)"><path class="b" d="M52.53,59.122H51v1.53h3.061V57.591h4.591v1.53h-1.53v1.53h3.061V53H52.53Zm6.122-4.591v1.53H54.061V54.53Z" transform="translate(-12.738 -13.208)"/><path class="b" d="M4.061,2.555A4.38,4.38,0,0,1,7.25,4.486l1.273-.849A5.908,5.908,0,0,0,3.6,1H2.53V7.122H1v1.53H4.061Z" transform="translate(-1 -1)"/><path class="b" d="M8.073,47.662,6.991,46.58l-1.4,1.4V46H4.061v1.979l-1.4-1.4L1.579,47.662l1.4,1.4H1v1.53H2.979l-1.4,1.4,1.082,1.082,1.4-1.4v1.979h1.53V51.673l1.4,1.4L8.073,51.99l-1.4-1.4H8.652v-1.53H6.673Zm-1.716,1.53V50.46l-.9.9H4.193l-.9-.9V49.193l.9-.9H5.46Z" transform="translate(-1 -11.565)"/><path class="b" d="M58.673,4.061l1.4-1.4L58.991,1.58l-1.4,1.4V1h-1.53V2.979l-1.4-1.4L53.579,2.662l1.4,1.4H53v1.53h1.979l-1.4,1.4,1.082,1.082,1.4-1.4V8.652h1.53V6.673l1.4,1.4L60.073,6.99l-1.4-1.4h1.979V4.061Zm-.317.132V5.46l-.9.9H56.193l-.9-.9V4.193l.9-.9H57.46Z" transform="translate(-13.208 -1)"/><path class="b" d="M45.228,31.726a4.793,4.793,0,0,0,.488-2.562L44.41,14.157a2.362,2.362,0,0,0-4.715.205V29.253l-5.6,4.9-4.352-.621V32.076a6.153,6.153,0,0,0,1.858-2.51,3.748,3.748,0,0,0,3.478-3.792H35.1V21.183a9.183,9.183,0,1,0-18.366,0v4.591h.021a3.748,3.748,0,0,0,3.478,3.792,6.139,6.139,0,0,0,1.858,2.51v1.452l-4.352.621-5.6-4.9V14.362a2.362,2.362,0,0,0-4.715-.205l-1.3,15.008a4.794,4.794,0,0,0,.488,2.562,4.868,4.868,0,0,0,.813,1.157l8.545,7.768V51.027h19.9V40.652l8.592-7.817A4.8,4.8,0,0,0,45.228,31.726Zm-12.25-4.408a2.292,2.292,0,0,1-.966.618c.021-.208.032-.419.032-.632V23.643a2.311,2.311,0,0,1,1.519,1.9A2.282,2.282,0,0,1,32.978,27.318ZM25.922,13.53a7.661,7.661,0,0,1,7.652,7.652v1.6a4.02,4.02,0,0,0-2.427-.83H20.7a4.02,4.02,0,0,0-2.427.83v-1.6A7.661,7.661,0,0,1,25.922,13.53ZM18.865,27.318a2.281,2.281,0,0,1-.585-1.772,2.311,2.311,0,0,1,1.519-1.9V27.3a6.164,6.164,0,0,0,.033.632A2.3,2.3,0,0,1,18.865,27.318ZM21.33,27.3V23.478h9.183V27.3a4.591,4.591,0,1,1-9.183,0Zm4.591,6.122a6.08,6.08,0,0,0,2.3-.451v1.074a2.412,2.412,0,0,1-4.591,0V32.976A6.08,6.08,0,0,0,25.922,33.426ZM7.985,31.042A3.267,3.267,0,0,1,7.652,29.3L8.957,14.291a.831.831,0,0,1,1.66.071V29.948l2.094,1.833L10.7,33.791,8.507,31.8A3.277,3.277,0,0,1,7.985,31.042Zm26.355,8.933v6.46h-2.3v1.53h2.3V49.5H17.5v-1.53H30.513v-1.53H17.5v-6.46l-5.67-5.153,2.032-2.032,3.4,2.974,5.14-.734a3.893,3.893,0,0,0,7.033,0l5.14.734,3.4-2.974,2.03,2.03Zm9.519-8.933a3.337,3.337,0,0,1-.474.709L41.141,33.79,39.132,31.78l2.094-1.833V14.362a.832.832,0,0,1,1.661-.072L44.192,29.3A3.276,3.276,0,0,1,43.859,31.042Z" transform="translate(-2.199 -3.582)"/></g></g></g></svg>