<svg xmlns="http://www.w3.org/2000/svg" width="91" height="91" viewBox="0 0 91 91"><defs><style>.a{fill:#e8e3f8;}.b{fill:#7ccbf3;}</style></defs><g transform="translate(-1374 -1777)"><circle class="a" cx="45.5" cy="45.5" r="45.5" transform="translate(1374 1777)"/><g transform="translate(1396 1798.999)"><path class="b" d="M2,38V25H8V23H2V10A1,1,0,0,1,3,9H31a1,1,0,0,1,1,1V23H22v2H32v4h2V10a3,3,0,0,0-3-3H24.931A7.993,7.993,0,0,0,9.069,7H3a3,3,0,0,0-3,3V38a3,3,0,0,0,3,3h7V39H3A1,1,0,0,1,2,38ZM17,2a6.006,6.006,0,0,1,5.91,5H11.09A6.006,6.006,0,0,1,17,2Z"/><path class="b" d="M47,26V17.151A3.121,3.121,0,0,0,45.052,14.2a2.861,2.861,0,0,0-3.2.748l-2,2.148A3.207,3.207,0,0,0,39,19.3V26a1,1,0,0,0-1,1V47a1,1,0,0,0,1,1h8a1,1,0,0,0,1-1V27A1,1,0,0,0,47,26Zm-6-6.7a1.235,1.235,0,0,1,.318-.837l2-2.148a.882.882,0,0,1,1-.251A1.119,1.119,0,0,1,45,17.151V26H41ZM46,31H40V28h6ZM40,46V33h6V46Z"/><path class="b" d="M21,34V45a3,3,0,0,0,3,3H36V46H29V33h7V31H24A3,3,0,0,0,21,34Zm6,7H23V38h4Zm-3,5a1,1,0,0,1-1-1V43h4v3Zm3-10H23V34a1,1,0,0,1,1-1h3Z"/><path class="b" d="M15,19c-2.757,0-5,2.691-5,6v3a1,1,0,0,0,1,1v2a2.985,2.985,0,0,0,1,2.22V47a1,1,0,0,0,1,1h4a1,1,0,0,0,1-1V33.22A2.985,2.985,0,0,0,19,31V29a1,1,0,0,0,1-1V25C20,21.691,17.757,19,15,19Zm-3,6c0-2.206,1.346-4,3-4s3,1.794,3,4v2H12Zm4,21H14V34h2Zm1-15a1,1,0,0,1-1,1H14a1,1,0,0,1-1-1V29h4Z"/><path class="b" d="M9,11v3a1,1,0,0,0,1,1H24a1,1,0,0,0,1-1V11H23v2H11V11Z"/></g></g></svg>