<svg xmlns="http://www.w3.org/2000/svg" width="91" height="91" viewBox="0 0 91 91"><defs><style>.a{fill:#e8e3f8;}.b{fill:#7ccbf3;}</style></defs><g transform="translate(-455 -2110)"><circle class="a" cx="45.5" cy="45.5" r="45.5" transform="translate(455 2110)"/><g transform="translate(452.5 2102.97)"><g transform="translate(23.5 29.03)"><path class="b" d="M26.04,74.394h26.1L37.211,55.513,26.04,67.583Zm43.5-10.205L53.4,46.76,43.459,59.336,55.367,74.394H69.535V64.189ZM41.847,57.3,52.338,44.033a1.266,1.266,0,0,1,1.92-.075L69.535,60.467V31.57H26.04V63.861l10.319-11.15a1.266,1.266,0,0,1,1.92.075L41.847,57.3ZM38.925,43.784a4.705,4.705,0,1,0-4.705-4.705A4.706,4.706,0,0,0,38.925,43.784ZM70.8,76.934H24.77a1.271,1.271,0,0,1-1.27-1.27V30.3a1.271,1.271,0,0,1,1.27-1.27H70.8a1.271,1.271,0,0,1,1.27,1.27V75.663A1.271,1.271,0,0,1,70.8,76.934Z" transform="translate(-23.5 -29.03)"/></g></g></g></svg>