<svg xmlns="http://www.w3.org/2000/svg" width="91" height="91" viewBox="0 0 91 91"><defs><style>.a{fill:#e8e3f8;}.b{fill:#7ccbf3;fill-rule:evenodd;}</style></defs><g transform="translate(-455 -2110)"><circle class="a" cx="45.5" cy="45.5" r="45.5" transform="translate(455 2110)"/><path class="b" d="M56.53,25.779l-11.24,24.1a4.835,4.835,0,0,1-6.426,2.339l-6.6-3.078a1.2,1.2,0,0,1-.831-1.139,1.217,1.217,0,0,1,1.217-1.217,1.182,1.182,0,0,1,.566.158l.011-.021,6.66,3.1a2.417,2.417,0,0,0,3.213-1.17l11.24-24.1a2.418,2.418,0,0,0-1.17-3.213l-8.348-3.893s-1.255-.433-1.255-1.366a1.217,1.217,0,0,1,1.217-1.217,1.193,1.193,0,0,1,.583.169l8.825,4.115A4.839,4.839,0,0,1,56.53,25.779ZM35.084,42.946H5.874a4.868,4.868,0,0,1-4.868-4.868V8.868A4.868,4.868,0,0,1,5.874,4h29.21a4.868,4.868,0,0,1,4.868,4.868v29.21A4.868,4.868,0,0,1,35.084,42.946ZM21.7,30.775V29.558l1.409-.57c.706-.567,2.489-2.248,2.489-2.248l.049-.239a48.677,48.677,0,0,0,.895-5.847c0-3.943-1.868-5.7-6.06-5.7s-6.06,1.759-6.06,5.7a47.133,47.133,0,0,0,.895,5.843l.049.3a20.82,20.82,0,0,0,2.5,2.152l1.4.61v1.217c-.01-.1,0,2.434,0,2.434,0,1.968-1.345,2.536-3.189,2.536h0c-4.136.162-4.779,1.525-4.924,1.683-.13.194-.273,2.654-.413,3.083H30.228c-.138-.427-.274-2.876-.422-3.1-.057-.068-.6-1.484-4.823-1.666-1.94,0-3.286-.57-3.286-2.539C21.7,33.21,21.718,30.6,21.7,30.775ZM37.518,8.868a2.435,2.435,0,0,0-2.434-2.434H5.874A2.435,2.435,0,0,0,3.44,8.868v29.21a2.435,2.435,0,0,0,2.434,2.434h2.2c.425-.784.649-3.831,1.084-4.486,0,0,.758-2.48,6.729-2.713a.855.855,0,0,0,.913-.965V31.5c0-.118-.019-.223-.026-.337-.531-.422-.656-.583-1.576-1.35,0,0-2.037-1.334-2.265-2.832a52.266,52.266,0,0,1-.943-6.329c0-4.2,1.874-8.137,8.494-8.137,6.53,0,8.494,3.937,8.494,8.137a53.669,53.669,0,0,1-.943,6.329c-.19,1.419-2.265,2.832-2.265,2.832a12.241,12.241,0,0,1-1.672,1.4c0,.1-.022.189-.022.29v.843a.856.856,0,0,0,.913.965c6.061.26,6.82,2.713,6.82,2.713.434.654.66,3.7,1.086,4.486h2.2a2.435,2.435,0,0,0,2.434-2.434V8.868Z" transform="translate(471.994 2127)"/></g></svg>