<svg xmlns="http://www.w3.org/2000/svg" width="91" height="91" viewBox="0 0 91 91"><defs><style>.a{fill:#e8e3f8;}.b{fill:#7ccbf3;}</style></defs><g transform="translate(-1374 -2110)"><circle class="a" cx="45.5" cy="45.5" r="45.5" transform="translate(1374 2110)"/><g transform="translate(1393.247 2129.5)"><g transform="translate(2.753 1.5)"><path class="b" d="M23.767,6.9a5.4,5.4,0,1,0-5.4,5.4A5.4,5.4,0,0,0,23.767,6.9Zm-9.239,0a3.843,3.843,0,1,1,3.843,3.843A3.848,3.848,0,0,1,14.528,6.9Z" transform="translate(-5.035 -1.5)"/><path class="b" d="M27.254,23.385l-5.677-5.061a5.361,5.361,0,0,0-3.265-1.346l-8.048-.437a5.343,5.343,0,0,0-4.522,2.074l-1.88,2.44a5.333,5.333,0,0,0,.91,7.437,4.959,4.959,0,0,0-.281,4.527l2.58,5.83a4.843,4.843,0,0,0,2.712,2.575c.029.012.058.02.087.031a9.843,9.843,0,0,1-.311,1.752l-1.406,5.02a3.761,3.761,0,0,0,3.623,4.784,3.756,3.756,0,0,0,3.642-2.79l1.826-6.809a11.773,11.773,0,0,0,.135-5.488l.327-.34A16.752,16.752,0,0,1,20.455,46.9l-.008,2.335a3.771,3.771,0,0,0,3.775,3.778h.243a3.764,3.764,0,0,0,3.766-3.883L28.1,45.016A18.285,18.285,0,0,0,24.991,35.3c2.08-.571,4.248-1.913,4.245-3.037a1.037,1.037,0,0,0-1.027-1.008,10.82,10.82,0,0,1-3.276-.959l1.948-.863h7.169a3.313,3.313,0,0,0,2.4-1,3.363,3.363,0,0,0,1.009-2.418,3.427,3.427,0,0,0-.213-1.175L41.166,23.1a1.9,1.9,0,0,0,.967-2.5l-.567-1.283a1.938,1.938,0,0,0-2.505-.966l-11.7,5.182A.741.741,0,0,0,27.254,23.385ZM4.369,25.006a3.8,3.8,0,0,1,.724-3l1.88-2.44a3.784,3.784,0,0,1,3.207-1.471l8.048.437a3.8,3.8,0,0,1,2.316.955l5.3,4.723-3.418,1.514c0-.039,0-.072,0-.112a2.96,2.96,0,0,0-2.39-2.877,2.6,2.6,0,0,0-1.419.1,2.976,2.976,0,0,0-1.279.884c-.014.017-.029.036-.043.056a6.382,6.382,0,0,1-3.416,2.038l-3.491-1.939v-.532a.777.777,0,1,0-1.553,0v.989a.777.777,0,0,0,.4.679l6.313,3.506h0l.106.061a2.047,2.047,0,0,1-.611,3.8,1.56,1.56,0,0,1-.324.03,2.007,2.007,0,0,1-1.123-.3l-.738-.449-6.73-4.106A3.794,3.794,0,0,1,4.369,25.006Zm13.776,4.532a1.518,1.518,0,0,1,.572.658,1.5,1.5,0,0,1-1.064,2.119,3.564,3.564,0,0,0,.594-1.952A3.6,3.6,0,0,0,18.146,29.539Zm-2.4,13.473L13.916,49.82A2.234,2.234,0,0,1,13.135,51a2.27,2.27,0,0,1-3.127-.417,2.188,2.188,0,0,1-.362-1.932l1.406-5.019a11.36,11.36,0,0,0,.344-1.868c.067,0,.133.012.2.012a4.86,4.86,0,0,0,1.973-.421,4.807,4.807,0,0,0,1.557-1.086l.9-.933A10.211,10.211,0,0,1,15.741,43.011ZM26.68,49.178a2.211,2.211,0,0,1-2.214,2.28h-.243a2.211,2.211,0,0,1-1.578-.656A2.182,2.182,0,0,1,22,49.241l.008-2.334a18.3,18.3,0,0,0-3.1-10.313,6.465,6.465,0,0,1,.857-.477,6.359,6.359,0,0,1,2.768-.545,5.746,5.746,0,0,0,.754.01,16.744,16.744,0,0,1,3.263,9.482ZM23.568,34a4.312,4.312,0,0,1-.94.017,7.787,7.787,0,0,0-5.236,1.752h0l0,0-.025.018a8.376,8.376,0,0,0-.718.65L14,39.195a3.353,3.353,0,0,1-3.163.933,2.266,2.266,0,0,1-.487-.147A3.309,3.309,0,0,1,8.49,38.219L5.911,32.391a3.4,3.4,0,0,1,.164-3.05l5.969,3.642.739.45a3.545,3.545,0,0,0,1.823.526c.047,0,.094,0,.14,0a2.948,2.948,0,0,0,.6-.061,3.571,3.571,0,0,0,.726-.239,3.089,3.089,0,1,0,1.04-5.91,3.5,3.5,0,0,0-.7-.518l-.092-.054-.009,0-.005,0-.6-.336a7.912,7.912,0,0,0,2.8-2.09l.038-.05a1.418,1.418,0,0,1,.586-.392,1.075,1.075,0,0,1,.606-.041,1.413,1.413,0,0,1,1.129,1.357,6.831,6.831,0,0,0,.12,1.348c0,.008,0,.016,0,.024a7.488,7.488,0,0,0,.444,1.583,8.035,8.035,0,0,0,1.217,2.116A10.4,10.4,0,0,0,27.1,32.651,8.093,8.093,0,0,1,23.568,34Zm12.338-7.989a1.835,1.835,0,0,1-.558,1.324,1.787,1.787,0,0,1-1.3.54H30.387l5.437-2.409A1.893,1.893,0,0,1,35.905,26.016ZM39.69,19.77a.351.351,0,0,1,.456.176l.567,1.283a.346.346,0,0,1-.176.455L23.512,29.226c-.025-.037-.054-.073-.079-.111-.044-.068-.087-.137-.128-.207a6.186,6.186,0,0,1-.326-.614c0-.011-.009-.023-.014-.034a5.92,5.92,0,0,1-.25-.682c-.01-.032-.02-.064-.029-.1-.015-.053-.022-.11-.036-.163Z" transform="translate(-2.753 -4.857)"/><path class="b" d="M41.774,13.369A2.234,2.234,0,0,0,44.519,11.8h0l1.214-4.449.23.063a.777.777,0,0,0,.41-1.5l-.979-.267a.777.777,0,0,0-.954.545l-.861,3.155a2.231,2.231,0,1,0-1.8,4.021Zm-.068-2.336a.681.681,0,1,1,1.314.359.69.69,0,0,1-.837.479.682.682,0,0,1-.478-.838Z" transform="translate(-11.099 -2.42)"/><path class="b" d="M43.752,47.764a2.235,2.235,0,1,0,2.716,1.617h0l-1.134-4.47.231-.058a.777.777,0,1,0-.382-1.506l-.983.25a.777.777,0,0,0-.562.944l.8,3.168c-.046,0-.091-.012-.138-.012A2.235,2.235,0,0,0,43.752,47.764Zm.717,2.827a.681.681,0,1,1-.166-1.343.682.682,0,0,1,.166,1.343Z" transform="translate(-11.532 -10.839)"/><path class="b" d="M59.458,29.168a.776.776,0,0,0-.777-.777H53.45a.776.776,0,0,0-.777.777V32.44a2.2,2.2,0,0,0-.681-.118,2.235,2.235,0,1,0,2.235,2.235V29.944H57.9V34.2a2.2,2.2,0,0,0-.682-.118,2.235,2.235,0,1,0,2.235,2.235Zm-7.466,6.071a.682.682,0,1,1,.681-.681A.682.682,0,0,1,51.992,35.239ZM57.223,37a.681.681,0,1,1,.682-.681A.682.682,0,0,1,57.223,37Z" transform="translate(-13.249 -7.505)"/></g></g></g></svg>