<svg xmlns="http://www.w3.org/2000/svg" width="91" height="91" viewBox="0 0 91 91"><defs><style>.a{fill:#e8e3f8;}.b{fill:#7ccbf3;}</style></defs><g transform="translate(-915 -1777)"><circle class="a" cx="45.5" cy="45.5" r="45.5" transform="translate(915 1777)"/><g transform="translate(928 1790)"><path class="b" d="M55.074,33.358a1.149,1.149,0,0,0,1.148-1.148V20.63a1.149,1.149,0,0,0-1.148-1.148H44.741V9.148A1.149,1.149,0,0,0,43.592,8h-6.84a1.148,1.148,0,1,0,0,2.3h5.692V30.963H20.63a1.149,1.149,0,0,0-1.148,1.148V42.444H10.3V10.3H24.168a1.148,1.148,0,1,0,0-2.3H9.148A1.149,1.149,0,0,0,8,9.148V43.592a1.149,1.149,0,0,0,1.148,1.148H19.481V55.074a1.149,1.149,0,0,0,1.148,1.148h3.538a1.148,1.148,0,1,0,0-2.3h-2.39V33.259H42.444V53.926H37.3c-.012,0-.023,0-.035,0A12.118,12.118,0,0,0,25.222,42.97a.574.574,0,1,0,0,1.148,10.964,10.964,0,0,1,10.948,10.8,1.109,1.109,0,0,0-.015.152A1.149,1.149,0,0,0,37.3,56.222h17.77a1.149,1.149,0,0,0,1.148-1.148V43.452a1.148,1.148,0,0,0-2.3,0V53.926H44.741V21.778h9.185V32.21A1.149,1.149,0,0,0,55.074,33.358Z" transform="translate(0 0)"/></g></g></svg>